<svg xmlns="http://www.w3.org/2000/svg" xmlns:xlink="http://www.w3.org/1999/xlink" version="1.1" x="0px" y="0px" viewBox="0 0 100 125" enable-background="new 0 0 100 100" xml:space="preserve"><g><path d="M40.197,32.54c5.071,0,9.2-4.122,9.2-9.196c0-5.092-4.128-9.208-9.2-9.208c-5.096,0-9.215,4.116-9.215,9.208   C30.982,28.417,35.101,32.54,40.197,32.54z"/></g><g><path d="M94.969,27.841c-2.711-3.083-5.656-3.478-7.915-3.478c-0.695,0-1.386,0.04-2.061,0.083   c-0.58,0.037-1.146,0.074-1.698,0.074c-1.697,0-2.584-0.375-3.392-1.432C75.64,17.499,69.567,1.79,69.567,1.79L51.571,54.35H37.886   c-0.736-5.287-1.337-9.72-1.605-11.948c-0.305-3.208-0.998-6.596-1.787-7.927c-1.232-2.711-3.038-3.78-3.038-3.78   c-9.089-5.191-13.831,4.409-13.988,4.772c-0.905,2.12-2.123,5.57-1.987,12.585c0.296,15.697,14.407,40.539,14.407,40.539H9.797   c-3.074,0-5.863,1.839-5.863,5.286c0,3.072,2.545,4.878,5.607,4.878l26.859,0.009c3.657,0,7.311-4.015,6.522-8.949   c0,0-1.771-12.275-3.506-24.531h-7.529c-3.371,0-6.116-2.745-6.116-6.115V46.25c0-0.653,0.533-1.186,1.186-1.186   s1.186,0.533,1.186,1.186v12.918c0,2.064,1.679,3.743,3.744,3.743h7.197c-0.003-0.012-0.003-0.021-0.006-0.034h9.582l-0.937,2.748   c-0.318,0.925,0.178,1.929,1.103,2.243c0.188,0.065,0.382,0.096,0.57,0.096c0.736,0,1.423-0.462,1.673-1.199l1.328-3.888h0.912   c2.356,0,4.264-1.907,4.264-4.264c0-1.688-1.002-3.118-2.422-3.808l3.839-11.249c1.125,2.185,2.795,4.738,5.223,6.806   c1.74,1.485,3.632,2.207,5.786,2.207c1.528,0,3.028-0.36,4.482-0.707c1.885-0.452,3.822-0.917,5.995-0.655   c4.781,0.576,6.295,9.311,6.31,9.399l0.792,5.001l2.492-4.403C90.619,60.237,103.386,37.411,94.969,27.841z M89.017,55.523   c-1.278-3.309-3.719-7.299-8.114-7.829c-0.583-0.071-1.15-0.102-1.701-0.102c-2.07,0-3.913,0.44-5.542,0.829   c-2.851,0.684-5.108,0.989-7.155-0.752c-3.552-3.025-5.283-7.514-5.81-9.107l9.116-26.644c1.72,3.919,4.455,9.606,7.28,13.312   c1.91,2.501,4.319,2.825,6.204,2.825c0.626,0,1.268-0.04,1.921-0.081c2.485-0.15,4.904-0.295,7.097,2.2   C96.965,35.463,92.582,47.981,89.017,55.523z"/></g><text x="0" y="115" fill="#000000" font-size="5px" font-weight="bold" font-family="'Helvetica Neue', Helvetica, Arial-Unicode, Arial, Sans-serif">Created by Luis Prado</text><text x="0" y="120" fill="#000000" font-size="5px" font-weight="bold" font-family="'Helvetica Neue', Helvetica, Arial-Unicode, Arial, Sans-serif">from the Noun Project</text></svg>